<?xml version="1.0" standalone="no"?>
<!DOCTYPE svg PUBLIC "-//W3C//DTD SVG 20010904//EN"
 "http://www.w3.org/TR/2001/REC-SVG-20010904/DTD/svg10.dtd">
<svg  version="1.0" xmlns="http://www.w3.org/2000/svg"
 width="53.87pt" height="43.87pt" viewBox="0 0 476.000000 297.000000"
 preserveAspectRatio="xMidYMid meet">

<g transform="translate(0.000000,297.000000) scale(0.100000,-0.100000)"
fill="#ffffff" stroke="none">
<path d="M3750 2875 c-87 -21 -232 -88 -314 -145 -86 -60 -195 -170 -315 -320
-111 -139 -140 -184 -233 -375 -138 -285 -210 -553 -209 -785 0 -239 47 -397
166 -565 51 -73 167 -184 227 -218 75 -44 230 -95 322 -107 130 -18 292 12
417 75 143 73 345 279 495 505 190 285 260 463 252 635 -3 66 -10 101 -25 130
-25 49 -95 115 -140 134 -18 7 -33 17 -33 20 0 4 38 22 84 39 101 39 120 56
88 82 -45 37 -91 35 -193 -9 -52 -22 -119 -54 -151 -71 -31 -17 -85 -40 -120
-51 -134 -43 -389 -215 -396 -267 -7 -46 103 -58 167 -18 21 13 109 66 197
117 153 89 162 93 224 95 58 2 68 0 94 -24 67 -63 83 -165 47 -303 -25 -98
-74 -201 -167 -356 -106 -178 -170 -261 -295 -384 -175 -173 -320 -254 -476
-266 -88 -7 -138 5 -250 60 -96 46 -183 127 -254 233 -148 222 -173 565 -68
909 71 232 208 512 327 670 83 110 271 300 347 351 210 139 399 169 558 86 26
-13 50 -28 53 -33 11 -19 84 -49 117 -49 40 0 63 21 50 45 -14 24 -107 91
-167 119 -30 14 -83 33 -118 41 -77 18 -233 18 -308 0z"/>
<path d="M1400 2704 c-148 -13 -251 -28 -342 -50 -276 -67 -611 -303 -770
-544 -131 -198 -172 -323 -173 -526 0 -114 1 -123 30 -179 36 -70 92 -117 170
-141 99 -32 143 17 64 72 -133 92 -162 256 -84 485 54 159 137 280 297 435
185 180 300 246 564 328 121 37 227 49 382 43 119 -4 149 -9 227 -36 216 -75
297 -121 390 -223 75 -82 102 -126 136 -220 97 -266 98 -614 2 -881 -82 -228
-248 -479 -426 -643 -185 -169 -477 -314 -634 -314 l-52 0 -7 37 c-14 74 -8
474 14 893 32 612 40 720 58 800 9 39 13 74 10 77 -12 12 -98 22 -120 13 -19
-7 -25 -20 -34 -72 -20 -116 -22 -147 -37 -501 -8 -194 -20 -440 -25 -547 -5
-107 -10 -296 -9 -420 0 -347 11 -366 224 -364 102 1 132 5 198 27 115 40 271
118 378 188 116 78 319 278 406 402 177 252 273 569 273 904 0 190 -63 443
-139 559 -39 60 -132 154 -207 212 -53 40 -181 104 -264 130 -137 44 -355 69
-500 56z"/>
</g>
</svg>
